<svg width="33" height="33" viewBox="0 0 33 33" fill="none" xmlns="http://www.w3.org/2000/svg">
<path fill-rule="evenodd" clip-rule="evenodd" d="M3.5 16.7625C3.5 9.58275 9.3203 3.76245 16.5 3.76245C23.6798 3.76245 29.5 9.58275 29.5 16.7625C29.5 23.9423 23.6798 29.7625 16.5 29.7625C9.3203 29.7625 3.5 23.9423 3.5 16.7625ZM16.5 0.762451C7.66344 0.762451 0.5 7.92589 0.5 16.7625C0.5 25.5991 7.66344 32.7625 16.5 32.7625C25.3366 32.7625 32.5 25.5991 32.5 16.7625C32.5 7.92589 25.3366 0.762451 16.5 0.762451ZM13.2572 11.2168C12.924 11.0169 12.5 11.2569 12.5 11.6456V21.8795C12.5 22.2681 12.924 22.5081 13.2572 22.3081L21.7854 17.1912C22.109 16.997 22.109 16.5279 21.7854 16.3337L13.2572 11.2168Z" fill="white"/>
</svg>
